<?xml version="1.0" standalone="no"?>
<!DOCTYPE svg PUBLIC "-//W3C//DTD SVG 20010904//EN"
 "http://www.w3.org/TR/2001/REC-SVG-20010904/DTD/svg10.dtd">
<svg version="1.0" xmlns="http://www.w3.org/2000/svg"
 width="152.000000pt" height="164.000000pt" viewBox="0 0 152.000000 164.000000"
 preserveAspectRatio="xMidYMid meet">

<g transform="translate(0.000000,164.000000) scale(0.100000,-0.100000)"
fill="#000000" stroke="none">
<path d="M1112 1349 c-28 -14 -55 -40 -77 -71 l-33 -50 -16 30 c-9 17 -27 40
-42 51 -24 19 -29 19 -59 7 -20 -9 -38 -10 -46 -5 -23 14 -44 10 -83 -16 -29
-19 -41 -23 -56 -15 -33 18 -61 11 -97 -25 -23 -23 -45 -35 -62 -35 -43 0 -97
-44 -126 -104 -38 -78 -50 -177 -37 -300 15 -136 33 -190 92 -277 40 -59 51
-84 56 -131 8 -67 24 -68 24 -1 0 36 3 44 15 39 23 -8 18 8 -11 35 -38 36
-110 156 -131 219 -13 42 -18 87 -18 185 0 152 17 216 71 271 71 70 114 30
122 -112 5 -85 -8 -148 -33 -157 -25 -10 -46 19 -71 98 -19 63 -23 71 -19 35
9 -69 23 -116 44 -141 17 -22 22 -23 53 -11 19 6 51 12 72 12 20 0 47 6 59 12
27 15 112 21 231 16 71 -3 102 69 91 207 -8 95 1 121 63 177 47 43 77 54 97
38 23 -19 18 -51 -15 -112 -61 -112 -90 -243 -90 -410 l0 -96 -50 -75 c-27
-40 -70 -93 -95 -116 -49 -45 -57 -58 -23 -40 19 10 20 9 14 -7 -14 -35 -19
-121 -8 -128 12 -7 15 3 32 86 9 45 26 78 81 154 38 54 71 111 73 128 3 17 8
91 11 164 7 152 26 229 86 339 21 40 39 83 39 96 0 51 -63 69 -128 36z m-282
-69 c28 -15 43 -76 43 -175 0 -108 -18 -161 -58 -171 -15 -4 -30 -3 -35 2 -4
5 -10 63 -12 129 -3 80 -10 133 -21 157 -16 38 -16 38 11 53 32 17 47 18 72 5z
m118 -12 c34 -37 44 -78 45 -181 0 -83 -3 -102 -20 -125 -38 -52 -105 -34 -83
22 15 41 13 220 -4 261 -8 18 -12 36 -8 39 13 13 50 5 70 -16z m-235 -40 c16
-21 22 -48 25 -112 2 -47 2 -100 -2 -119 -8 -45 -48 -87 -81 -87 l-25 0 0 103
c0 81 -5 111 -21 147 l-20 45 31 28 c38 34 65 32 93 -5z"/>
<path d="M852 825 c-39 -33 -62 -92 -69 -179 -7 -82 10 -86 21 -5 9 67 39 146
67 175 31 33 18 40 -19 9z"/>
<path d="M765 820 c-22 -11 -71 -24 -110 -31 -90 -15 -113 -34 -30 -24 65 8
138 32 176 59 31 21 14 19 -36 -4z"/>
</g>
</svg>
