<?xml version="1.0" standalone="no"?>
<!DOCTYPE svg PUBLIC "-//W3C//DTD SVG 20010904//EN"
 "http://www.w3.org/TR/2001/REC-SVG-20010904/DTD/svg10.dtd">
<svg version="1.0" xmlns="http://www.w3.org/2000/svg"
 width="163.000000pt" height="193.000000pt" viewBox="0 0 163.000000 193.000000"
 preserveAspectRatio="xMidYMid meet">

<g transform="translate(0.000000,193.000000) scale(0.100000,-0.100000)"
fill="#000000" stroke="none">
<path d="M810 1611 l-37 -39 -17 29 c-12 21 -25 29 -45 29 -47 0 -82 -58 -96
-156 -6 -49 -7 -50 -36 -46 -33 5 -62 -15 -85 -59 -25 -49 -60 -455 -51 -596
6 -109 42 -216 98 -298 39 -56 40 -62 34 -112 -8 -63 9 -73 19 -12 5 30 10 39
21 35 8 -3 15 -3 15 -1 0 3 -25 45 -55 94 -107 171 -122 253 -99 551 23 313
46 392 107 376 24 -6 25 -8 32 -152 l7 -146 -36 -30 c-21 -17 -35 -32 -33 -34
2 -2 29 7 61 22 90 41 179 43 294 6 50 -16 94 -26 97 -22 5 7 -33 44 -54 52
-4 2 -2 89 6 193 13 176 15 191 36 207 29 23 54 22 67 -1 6 -12 10 -129 10
-311 l0 -291 -31 16 c-17 9 -62 48 -102 86 -61 60 -75 69 -96 64 -89 -22 -89
-126 -1 -242 l39 -53 -30 -48 c-34 -55 -45 -105 -34 -159 8 -37 8 -36 20 35
13 74 29 106 72 153 23 25 23 27 5 31 -38 10 -112 144 -112 203 0 23 28 55 49
55 8 0 40 -27 71 -59 32 -32 86 -78 120 -102 64 -45 90 -80 90 -124 0 -27 -53
-172 -90 -246 -12 -24 -40 -68 -63 -97 -46 -60 -45 -78 2 -30 l31 32 0 -41 c0
-46 8 -73 21 -73 5 0 9 34 9 75 0 52 5 83 16 100 8 13 35 72 60 132 54 132 56
173 14 232 l-30 41 1 305 c1 262 -1 309 -15 330 -21 32 -50 39 -85 22 -32 -16
-41 -9 -41 35 0 11 -13 33 -29 49 -42 41 -75 38 -121 -10z m117 -21 c16 -31
16 -155 2 -331 -6 -74 -12 -135 -13 -136 -1 -1 -30 3 -63 9 l-62 11 -7 65 c-8
82 4 329 18 356 29 58 101 73 125 26z m-177 -39 c5 -20 10 -120 10 -222 l0
-186 -57 -12 c-31 -6 -58 -9 -61 -7 -2 3 -4 85 -5 183 -2 197 7 249 50 283 32
25 48 15 63 -39z"/>
<path d="M590 786 c17 -10 49 -15 100 -15 111 1 146 17 40 18 -47 1 -103 4
-125 7 -39 5 -40 5 -15 -10z"/>
</g>
</svg>
