<?xml version="1.0" standalone="no"?>
<!DOCTYPE svg PUBLIC "-//W3C//DTD SVG 20010904//EN"
 "http://www.w3.org/TR/2001/REC-SVG-20010904/DTD/svg10.dtd">
<svg version="1.0" xmlns="http://www.w3.org/2000/svg"
 width="195.000000pt" height="199.000000pt" viewBox="0 0 195.000000 199.000000"
 preserveAspectRatio="xMidYMid meet">

<g transform="translate(0.000000,199.000000) scale(0.100000,-0.100000)"
fill="#000000" stroke="none">
<path d="M858 1320 c-87 -22 -144 -48 -172 -79 -10 -11 -40 -83 -67 -158 -26
-76 -61 -175 -78 -220 -16 -44 -33 -110 -37 -145 -6 -60 -9 -66 -62 -120 -31
-32 -53 -60 -50 -63 3 -3 29 19 59 50 l53 55 13 -25 c8 -14 15 -25 17 -25 2 0
1 33 -2 74 -7 108 21 193 97 293 81 108 133 156 204 192 105 51 116 51 247
-16 120 -61 159 -99 145 -142 -11 -35 -33 -31 -96 16 -80 60 -136 68 -203 29
-45 -26 -122 -114 -110 -125 3 -3 15 6 26 22 27 37 34 34 30 -12 -5 -49 23
-115 74 -170 74 -82 131 -91 254 -37 122 54 177 58 200 15 8 -13 7 -26 -1 -41
-24 -47 -103 -129 -141 -149 -86 -44 -238 -60 -380 -39 -77 11 -109 5 -82 -15
16 -11 16 -14 -5 -44 -13 -18 -25 -51 -27 -74 l-5 -42 36 68 c19 37 39 67 43
67 4 0 79 1 167 3 202 4 249 19 341 112 67 66 90 117 74 161 -21 53 -94 55
-220 5 -129 -52 -181 -37 -250 71 -31 48 -40 71 -40 105 0 126 90 160 211 80
64 -42 67 -42 146 -42 106 2 133 18 133 79 0 82 -116 223 -232 280 -45 22 -64
26 -142 25 -53 0 -123 -8 -168 -19z m312 -35 c91 -46 195 -167 214 -247 5 -20
1 -33 -14 -48 -29 -29 -37 -25 -44 24 -5 28 -20 62 -42 91 -47 61 -155 149
-229 186 l-60 30 61 -4 c38 -3 79 -15 114 -32z m-97 -38 c100 -50 186 -123
221 -186 37 -68 31 -104 -17 -99 -29 3 -32 7 -40 48 -12 62 -44 92 -162 150
-122 61 -148 63 -243 14 -72 -37 -111 -69 -170 -138 -18 -21 -35 -37 -37 -35
-2 2 10 46 27 97 23 72 38 102 67 131 49 49 88 61 194 57 77 -3 97 -8 160 -39z"/>
</g>
</svg>
