<?xml version="1.0" standalone="no"?>
<!DOCTYPE svg PUBLIC "-//W3C//DTD SVG 20010904//EN"
 "http://www.w3.org/TR/2001/REC-SVG-20010904/DTD/svg10.dtd">
<svg version="1.0" xmlns="http://www.w3.org/2000/svg"
 width="215.000000pt" height="228.000000pt" viewBox="0 0 215.000000 228.000000"
 preserveAspectRatio="xMidYMid meet">

<g transform="translate(0.000000,228.000000) scale(0.100000,-0.100000)"
fill="#000000" stroke="none">
<path d="M1207 1718 c-31 -24 -49 -91 -60 -225 l-11 -133 -29 0 c-21 0 -39
-10 -61 -33 l-31 -33 -30 18 c-66 39 -122 9 -144 -77 -11 -42 -13 -44 -40 -39
-16 3 -39 1 -51 -6 -50 -27 -84 -178 -60 -270 6 -25 15 -97 19 -160 9 -120 23
-167 68 -232 22 -32 25 -46 21 -88 -3 -27 -1 -50 4 -50 14 0 29 49 22 74 -5
21 -2 22 28 19 l33 -4 -25 18 c-83 58 -116 127 -127 259 l-6 72 45 -5 c41 -5
47 -2 72 27 20 25 30 30 39 21 18 -18 72 -13 101 10 24 19 28 20 39 5 22 -28
83 -47 111 -35 65 30 98 251 61 404 -23 91 -29 215 -17 316 11 84 33 131 66
137 33 7 46 -58 61 -301 7 -127 12 -233 10 -235 -2 -2 -18 -11 -37 -20 -52
-27 -67 -81 -47 -177 14 -71 14 -75 -3 -81 -28 -8 -168 -149 -168 -167 0 -10
3 -17 6 -17 3 0 40 35 82 79 43 43 87 85 99 92 20 14 21 16 6 73 -17 67 -11
113 18 151 36 44 58 31 89 -55 15 -41 38 -97 51 -125 53 -113 17 -259 -86
-353 -29 -27 -72 -54 -96 -62 -54 -17 -59 -24 -59 -77 0 -55 18 -65 22 -12 2
25 9 45 18 49 111 51 135 67 170 114 55 75 75 136 75 231 0 71 -4 89 -37 160
-20 44 -41 97 -47 119 -5 21 -17 46 -25 55 -12 13 -15 62 -18 251 -3 220 -5
238 -25 276 -29 54 -61 68 -96 42z m-53 -418 c19 -31 21 -52 21 -180 0 -195
-22 -244 -98 -218 -55 20 -75 105 -58 248 7 51 18 109 27 129 29 70 74 79 108
21z m-173 -21 c18 -18 19 -27 12 -92 -9 -84 -10 -179 0 -224 6 -28 3 -34 -28
-52 l-35 -20 -27 23 c-21 18 -28 36 -34 82 -13 105 -10 223 6 254 27 52 71 64
106 29z m-164 -111 c4 -7 11 -53 14 -103 4 -49 10 -106 14 -125 14 -69 -59
-110 -108 -61 -17 17 -22 36 -25 97 -5 84 7 137 39 178 22 28 53 34 66 14z"/>
<path d="M916 805 c-39 -14 -95 -60 -85 -70 3 -2 20 6 39 20 18 13 49 30 69
36 20 6 40 15 46 20 14 14 -24 10 -69 -6z"/>
</g>
</svg>
