<?xml version="1.0" standalone="no"?>
<!DOCTYPE svg PUBLIC "-//W3C//DTD SVG 20010904//EN"
 "http://www.w3.org/TR/2001/REC-SVG-20010904/DTD/svg10.dtd">
<svg version="1.0" xmlns="http://www.w3.org/2000/svg"
 width="218.000000pt" height="225.000000pt" viewBox="0 0 218.000000 225.000000"
 preserveAspectRatio="xMidYMid meet">

<g transform="translate(0.000000,225.000000) scale(0.100000,-0.100000)"
fill="#000000" stroke="none">
<path d="M699 1481 c-26 -27 -29 -36 -29 -95 0 -37 7 -108 15 -159 8 -50 21
-162 30 -247 25 -246 65 -384 135 -463 28 -32 31 -42 28 -84 -1 -27 1 -49 7
-51 6 -1 11 16 13 39 2 31 8 42 23 46 26 7 24 15 -14 39 -92 60 -140 201 -172
514 -8 85 -20 182 -25 215 -28 179 -22 250 22 243 43 -6 63 -66 112 -348 32
-180 104 -259 180 -199 l27 21 33 -35 c18 -20 44 -39 59 -42 l26 -7 -20 -31
c-10 -18 -19 -45 -19 -62 0 -30 1 -30 19 10 21 46 76 99 126 120 35 14 47 35
20 35 -26 0 -83 60 -101 106 -20 53 -9 94 26 94 31 0 208 -100 236 -133 45
-54 56 -152 28 -247 -13 -44 -30 -67 -102 -140 -48 -48 -107 -98 -131 -111
-25 -13 -46 -30 -49 -36 -5 -16 30 -17 45 -2 9 9 14 1 23 -29 16 -61 34 -66
26 -7 l-8 47 105 107 c120 121 131 145 130 276 0 95 -25 159 -79 200 -25 19
-34 34 -34 56 0 93 -84 164 -151 128 -16 -8 -26 -5 -55 20 -42 37 -82 40 -130
10 -30 -18 -35 -19 -40 -5 -9 24 -68 56 -102 56 -23 0 -38 -9 -60 -36 l-29
-35 -13 78 c-13 86 -40 147 -69 163 -27 14 -29 14 -62 -19z m305 -202 c25 -20
26 -25 26 -117 1 -53 5 -116 9 -139 9 -47 -1 -63 -51 -82 -63 -24 -121 81
-122 220 0 109 15 139 73 139 24 0 48 -8 65 -21z m187 -28 c31 -31 39 -71 15
-71 -22 0 -46 -40 -46 -77 0 -18 9 -60 21 -93 22 -65 19 -120 -7 -120 -8 0
-28 7 -43 15 -45 23 -64 82 -69 212 -4 109 -4 112 21 137 35 35 71 33 108 -3z
m156 -33 c21 -17 37 -88 23 -102 -16 -16 -124 43 -128 71 -6 44 65 64 105 31z
m-107 -292 c-13 -13 -35 7 -25 24 5 8 11 8 21 -1 10 -8 12 -15 4 -23z"/>
<path d="M892 853 c-24 -8 -41 -17 -38 -20 3 -3 19 0 37 6 18 6 59 11 93 11
34 0 68 5 76 10 25 16 -120 10 -168 -7z"/>
</g>
</svg>
