<?xml version="1.0" standalone="no"?>
<!DOCTYPE svg PUBLIC "-//W3C//DTD SVG 20010904//EN"
 "http://www.w3.org/TR/2001/REC-SVG-20010904/DTD/svg10.dtd">
<svg version="1.0" xmlns="http://www.w3.org/2000/svg"
 width="218.000000pt" height="208.000000pt" viewBox="0 0 218.000000 208.000000"
 preserveAspectRatio="xMidYMid meet">

<g transform="translate(0.000000,208.000000) scale(0.100000,-0.100000)"
fill="#000000" stroke="none">
<path d="M1008 1603 c-40 -42 -42 -69 -14 -202 34 -159 34 -155 -9 -147 -42 8
-87 -14 -104 -51 -9 -20 -16 -23 -34 -16 -61 21 -127 -16 -127 -70 0 -20 -4
-22 -46 -19 -60 5 -84 -15 -84 -74 0 -24 9 -66 20 -94 15 -37 20 -74 20 -139
0 -132 22 -232 73 -332 35 -68 42 -90 35 -109 -5 -13 -7 -31 -5 -39 3 -11 8
-5 16 15 10 25 17 31 33 26 23 -6 24 -8 -19 61 -76 122 -113 244 -113 375 l0
54 45 -46 c35 -37 51 -46 78 -46 18 0 38 5 45 12 8 8 15 8 26 -2 25 -20 81 -4
109 31 22 28 26 30 45 18 36 -22 73 -1 96 54 18 43 19 53 6 129 -7 45 -22 109
-32 142 -11 34 -25 102 -33 151 -8 50 -19 126 -26 170 -14 94 -8 131 26 147
37 17 72 -4 95 -55 22 -49 74 -395 88 -579 7 -91 13 -122 27 -138 30 -34 54
-24 125 50 66 69 68 70 118 70 40 0 57 -5 81 -26 57 -48 44 -72 -100 -195 -42
-36 -69 -74 -121 -166 -72 -128 -113 -173 -175 -193 -55 -18 -63 -30 -20 -30
25 0 37 -5 37 -14 0 -17 39 -66 40 -49 0 7 -5 23 -11 37 -11 23 -8 29 43 75
42 39 69 77 113 162 48 90 69 119 114 157 128 107 154 149 125 203 -23 45 -62
69 -111 69 -59 0 -113 -29 -164 -90 -71 -84 -86 -67 -99 119 -8 114 -17 181
-61 456 -6 39 -17 84 -24 101 -27 67 -101 85 -147 37z m2 -395 c37 -40 76
-212 67 -301 -5 -57 -32 -89 -68 -80 -24 7 -29 18 -57 136 -12 49 -33 115 -48
148 l-27 60 28 29 c35 36 76 39 105 8z m-159 -59 c39 -39 99 -216 99 -292 0
-43 -35 -87 -70 -87 -28 0 -60 35 -60 68 -1 63 -44 196 -77 233 -10 12 -11 23
-4 41 22 58 73 76 112 37z m-123 -92 c26 -28 55 -109 71 -200 13 -75 10 -87
-21 -87 -44 0 -146 149 -164 240 -13 63 68 97 114 47z"/>
<path d="M1001 699 c-30 -11 -83 -23 -118 -26 -67 -6 -69 -23 -3 -23 31 0 194
51 208 65 11 11 -36 2 -87 -16z"/>
<path d="M1114 691 c-42 -31 -87 -103 -99 -158 -11 -55 10 -37 29 24 14 44 31
69 73 110 60 59 58 69 -3 24z"/>
</g>
</svg>
