<?xml version="1.0" standalone="no"?>
<!DOCTYPE svg PUBLIC "-//W3C//DTD SVG 20010904//EN"
 "http://www.w3.org/TR/2001/REC-SVG-20010904/DTD/svg10.dtd">
<svg version="1.0" xmlns="http://www.w3.org/2000/svg"
 width="214.000000pt" height="208.000000pt" viewBox="0 0 214.000000 208.000000"
 preserveAspectRatio="xMidYMid meet">

<g transform="translate(0.000000,208.000000) scale(0.100000,-0.100000)"
fill="#000000" stroke="none">
<path d="M1683 1124 l-31 -25 -529 -5 c-290 -3 -555 -9 -588 -14 -48 -7 -66
-16 -87 -40 -44 -48 -34 -96 25 -127 28 -15 59 -17 236 -14 134 2 201 -1 197
-7 -3 -6 -41 -29 -84 -53 -125 -69 -325 -203 -355 -238 -15 -19 -27 -45 -27
-61 0 -79 92 -81 222 -5 106 62 201 114 209 115 4 0 10 -12 14 -27 10 -42 44
-73 79 -73 25 0 34 -7 46 -33 22 -48 58 -56 123 -28 28 13 77 30 107 38 129
34 168 47 228 76 76 37 145 95 162 137 11 26 17 30 54 30 30 0 37 3 26 10 -8
5 -25 10 -37 10 -15 0 -23 7 -25 23 -3 18 -8 12 -27 -30 -13 -29 -43 -70 -66
-92 -55 -50 -212 -130 -277 -140 l-49 -8 24 26 c33 34 67 92 67 112 0 8 -11
26 -25 39 -17 16 -25 34 -25 56 0 36 -22 64 -49 64 -10 0 -65 -15 -122 -34
-171 -57 -255 -58 -247 -3 2 16 25 33 86 64 46 23 111 60 145 82 34 22 75 45
90 50 39 15 102 13 165 -3 39 -11 52 -11 49 -3 -7 24 -61 40 -136 40 -85 1
-103 -6 -217 -85 -71 -49 -71 -50 -115 -38 -27 7 -114 12 -222 12 -98 -1 -189
3 -202 8 -13 5 -31 21 -41 35 -15 23 -15 27 0 50 9 13 32 29 53 34 22 6 274
12 592 16 l554 5 34 26 c18 14 33 32 33 40 0 18 1 18 -37 -12z m-435 -336 c5
-40 -50 -93 -172 -167 -95 -58 -109 -63 -131 -53 -28 13 -51 53 -42 76 8 20
143 110 220 147 78 37 121 36 125 -3z m-420 -4 c6 -32 33 -44 96 -44 l61 -1
-30 -24 c-16 -14 -43 -31 -60 -38 -16 -6 -77 -36 -135 -66 -182 -94 -202 -103
-240 -108 -76 -10 -79 52 -5 114 63 53 286 194 299 190 6 -2 13 -12 14 -23z
m450 -76 c31 -31 3 -98 -59 -144 -62 -47 -108 -65 -152 -62 -37 3 -42 6 -45
28 -3 22 7 32 70 72 40 26 91 62 113 82 44 38 55 42 73 24z"/>
</g>
</svg>
