<?xml version="1.0" standalone="no"?>
<!DOCTYPE svg PUBLIC "-//W3C//DTD SVG 20010904//EN"
 "http://www.w3.org/TR/2001/REC-SVG-20010904/DTD/svg10.dtd">
<svg version="1.0" xmlns="http://www.w3.org/2000/svg"
 width="207.000000pt" height="215.000000pt" viewBox="0 0 207.000000 215.000000"
 preserveAspectRatio="xMidYMid meet">

<g transform="translate(0.000000,215.000000) scale(0.100000,-0.100000)"
fill="#000000" stroke="none">
<path d="M918 1314 c-15 -8 -32 -23 -38 -34 -8 -14 -21 -20 -45 -20 -51 0
-104 -51 -112 -108 -5 -36 -9 -42 -29 -42 -56 0 -82 -75 -60 -177 8 -37 17
-106 21 -152 6 -85 40 -207 72 -259 9 -15 30 -41 45 -58 28 -30 29 -33 18 -76
-16 -64 -7 -96 10 -38 7 25 19 50 26 56 10 8 4 25 -33 79 -70 105 -102 181
-116 281 -8 49 -10 90 -6 92 4 2 27 -11 50 -27 50 -37 102 -42 121 -11 16 25
24 25 54 1 l24 -19 -44 -11 c-47 -12 -106 -59 -106 -85 0 -12 11 -7 45 18 42
33 69 41 188 61 47 8 48 25 2 25 -33 0 -35 2 -25 21 16 30 37 34 73 14 32 -17
33 -18 29 -80 -3 -44 1 -71 12 -93 17 -33 44 -46 31 -14 -5 9 -10 45 -13 79
-4 54 0 70 27 128 36 76 39 132 8 127 -55 -9 -150 114 -117 152 9 12 28 10
118 -14 59 -16 118 -33 132 -38 62 -24 94 -93 110 -231 14 -123 1 -196 -55
-307 -50 -100 -51 -104 -31 -104 9 0 15 -19 19 -61 3 -34 10 -66 16 -72 8 -8
9 14 5 80 l-7 92 44 83 44 83 0 125 c0 106 -4 136 -24 194 -13 39 -38 85 -57
106 -28 30 -34 46 -34 81 -1 60 -32 124 -72 149 -37 22 -126 28 -146 8 -9 -9
-18 -9 -37 0 -35 16 -104 14 -137 -4z m286 -18 c18 -7 42 -26 53 -40 23 -29
40 -103 27 -116 -9 -8 -172 35 -187 49 -13 13 -12 88 2 105 16 20 61 21 105 2z
m-151 -3 c3 -5 8 -29 11 -55 7 -45 6 -48 -15 -48 -31 0 -59 -28 -59 -59 1 -56
36 -108 95 -142 60 -34 60 -32 29 -107 l-14 -34 -32 23 c-83 56 -128 123 -162
238 -39 131 -11 191 88 191 30 0 57 -3 59 -7z m-193 -90 c0 -76 43 -195 99
-277 l31 -45 -22 -15 c-57 -40 -102 -5 -173 136 -66 131 -61 181 20 226 35 20
45 14 45 -25z m-130 -125 c0 -16 54 -120 92 -177 22 -34 26 -46 17 -57 -39
-47 -155 25 -178 111 -16 60 -13 83 14 110 26 27 55 33 55 13z"/>
</g>
</svg>
