<?xml version="1.0" standalone="no"?>
<!DOCTYPE svg PUBLIC "-//W3C//DTD SVG 20010904//EN"
 "http://www.w3.org/TR/2001/REC-SVG-20010904/DTD/svg10.dtd">
<svg version="1.0" xmlns="http://www.w3.org/2000/svg"
 width="208.000000pt" height="212.000000pt" viewBox="0 0 208.000000 212.000000"
 preserveAspectRatio="xMidYMid meet">

<g transform="translate(0.000000,212.000000) scale(0.100000,-0.100000)"
fill="#000000" stroke="none">
<path d="M859 1604 c-22 -23 -24 -34 -23 -107 1 -75 16 -150 70 -336 6 -21 5
-22 -14 -12 -59 32 -122 -5 -122 -72 0 -30 -4 -37 -20 -37 -55 0 -79 -86 -43
-153 13 -23 19 -65 23 -157 5 -113 9 -131 37 -192 18 -38 44 -84 59 -104 l28
-36 -17 -48 c-19 -53 -21 -70 -8 -70 4 0 16 20 26 45 14 37 21 45 36 40 31
-10 26 1 -72 140 -45 63 -66 128 -74 230 l-7 80 39 -36 c78 -74 111 -84 156
-49 14 11 40 20 60 20 34 0 56 16 90 64 11 14 21 17 41 12 24 -6 27 -11 21
-29 -4 -12 -10 -56 -12 -97 -4 -59 -2 -79 10 -88 13 -11 14 -6 10 31 -3 25 2
70 12 108 30 113 31 106 -7 101 -71 -8 -189 83 -162 126 9 14 30 17 128 20 69
1 124 -2 136 -8 11 -6 31 -32 44 -58 91 -180 71 -355 -60 -523 -26 -32 -44
-62 -40 -66 3 -4 12 -1 18 5 20 20 28 14 28 -22 0 -38 14 -55 24 -30 3 9 6 35
6 59 0 31 9 58 35 101 87 143 96 277 32 442 -32 80 -35 98 -28 135 5 23 21 96
35 162 29 136 37 295 16 345 -17 41 -50 48 -94 20 -49 -30 -81 -102 -111 -250
-13 -69 -30 -143 -36 -165 -12 -40 -12 -40 -44 105 -41 189 -61 256 -91 307
-44 76 -92 93 -135 47z m86 -16 c15 -11 35 -41 46 -65 22 -51 93 -409 84 -423
-3 -6 -2 -10 3 -10 5 0 24 -3 42 -6 29 -6 32 -5 26 13 -3 10 1 41 9 69 8 27
26 100 40 162 14 62 34 130 45 151 36 71 92 93 111 44 20 -50 3 -234 -33 -379
l-33 -130 -34 13 c-27 11 -55 12 -148 3 -64 -6 -116 -9 -117 -8 -1 2 -16 32
-34 68 -17 36 -39 93 -47 127 -56 230 -65 334 -31 372 24 26 36 26 71 -1z
m-42 -478 c42 -33 70 -86 64 -123 -7 -43 18 -92 59 -118 40 -25 42 -41 9 -74
-48 -49 -78 -28 -168 121 -72 120 -84 157 -63 189 20 31 63 33 99 5z m-58
-205 c37 -60 74 -118 82 -127 13 -14 12 -18 -6 -27 -11 -6 -29 -11 -41 -11
-28 0 -106 74 -141 135 -37 64 -38 107 -2 135 14 11 29 17 33 13 4 -4 38 -57
75 -118z"/>
</g>
</svg>
