<?xml version="1.0" standalone="no"?>
<!DOCTYPE svg PUBLIC "-//W3C//DTD SVG 20010904//EN"
 "http://www.w3.org/TR/2001/REC-SVG-20010904/DTD/svg10.dtd">
<svg version="1.0" xmlns="http://www.w3.org/2000/svg"
 width="205.000000pt" height="215.000000pt" viewBox="0 0 205.000000 215.000000"
 preserveAspectRatio="xMidYMid meet">

<g transform="translate(0.000000,215.000000) scale(0.100000,-0.100000)"
fill="#000000" stroke="none">
<path d="M934 1625 c-25 -39 -28 -95 -14 -295 7 -102 11 -193 8 -201 -3 -7
-26 49 -51 126 -60 182 -73 212 -104 241 -33 30 -88 33 -103 5 -17 -33 -11
-82 29 -242 21 -85 42 -171 45 -191 6 -35 5 -38 -16 -38 -71 0 -89 -70 -39
-149 28 -44 29 -49 19 -101 -26 -138 9 -285 88 -372 35 -40 38 -51 18 -102 -3
-9 -1 -16 5 -16 6 0 16 12 22 27 6 15 15 31 21 34 7 5 -5 25 -32 56 -23 26
-54 73 -69 103 -23 48 -26 71 -29 183 -2 70 -2 127 1 127 3 0 28 -14 56 -31
28 -18 69 -34 95 -36 39 -5 48 -2 72 22 23 23 32 26 68 21 39 -6 43 -10 61
-57 22 -55 45 -84 45 -55 0 9 -9 34 -20 56 -25 48 -25 66 -2 79 13 8 -1 10
-55 11 -67 0 -73 2 -97 31 -50 60 -37 75 96 107 82 19 102 12 191 -68 123
-111 137 -195 60 -352 -23 -45 -62 -106 -87 -135 -44 -49 -56 -73 -37 -73 5 0
19 9 32 19 l24 19 10 -31 c16 -49 30 -43 27 12 -3 42 3 64 41 143 25 51 51
111 57 132 15 48 8 132 -15 177 -21 40 -18 95 20 324 31 181 37 333 17 382
-17 39 -58 58 -95 44 -55 -21 -77 -75 -136 -333 -23 -100 -40 -142 -61 -146
-13 -2 -15 28 -15 215 0 185 -3 226 -18 270 -10 29 -28 60 -40 68 -33 23 -74
19 -93 -10z m95 -20 c29 -38 41 -111 41 -258 0 -111 -12 -244 -22 -252 -2 -1
-25 -5 -53 -8 l-50 -6 3 109 c2 60 -1 155 -6 212 -11 115 -4 178 23 208 24 27
40 25 64 -5z m341 -91 c15 -38 12 -165 -6 -279 -8 -55 -23 -158 -32 -229 l-18
-130 -39 35 c-57 50 -101 79 -135 89 -38 11 -171 -20 -210 -48 -25 -19 -29
-20 -41 -5 -7 8 -37 29 -66 45 -49 28 -52 32 -58 76 -12 106 -27 175 -55 267
-34 111 -37 137 -14 155 23 20 64 1 88 -39 18 -31 58 -156 103 -318 16 -60 16
-63 -2 -83 l-18 -20 36 15 c49 20 108 19 197 -4 41 -11 77 -17 80 -15 3 3 -8
16 -23 28 l-29 23 27 53 c16 32 35 97 46 159 24 135 42 188 76 223 36 37 80
38 93 2z m-549 -541 c45 -24 60 -38 91 -93 20 -36 37 -68 37 -72 2 -16 -32
-38 -58 -38 -62 0 -211 133 -211 188 0 16 3 32 7 35 15 16 83 5 134 -20z"/>
<path d="M945 726 c-27 -13 -59 -33 -70 -46 -16 -18 -8 -16 46 14 36 20 75 36
87 36 11 0 24 5 27 10 11 18 -39 10 -90 -14z"/>
</g>
</svg>
