<?xml version="1.0" standalone="no"?>
<!DOCTYPE svg PUBLIC "-//W3C//DTD SVG 20010904//EN"
 "http://www.w3.org/TR/2001/REC-SVG-20010904/DTD/svg10.dtd">
<svg version="1.0" xmlns="http://www.w3.org/2000/svg"
 width="203.000000pt" height="213.000000pt" viewBox="0 0 203.000000 213.000000"
 preserveAspectRatio="xMidYMid meet">

<g transform="translate(0.000000,213.000000) scale(0.100000,-0.100000)"
fill="#000000" stroke="none">
<path d="M1164 1637 c-43 -39 -52 -79 -54 -232 0 -107 -6 -130 -30 -115 -8 6
-32 10 -52 10 -30 0 -42 -6 -64 -34 -25 -31 -29 -33 -61 -23 -28 9 -38 7 -61
-10 -15 -11 -31 -34 -36 -52 -8 -29 -12 -31 -40 -25 -44 8 -80 -23 -97 -83
-17 -58 -17 -272 0 -388 14 -91 47 -167 89 -209 27 -25 29 -31 21 -64 -5 -20
-9 -48 -9 -62 0 -38 18 -5 26 48 5 33 10 42 27 42 16 0 11 7 -21 30 -50 36
-86 96 -107 179 -24 92 -18 415 8 455 10 15 25 30 33 33 26 10 76 -20 115 -70
42 -52 49 -86 23 -108 -13 -11 -22 -10 -57 9 -23 12 -46 22 -51 22 -18 0 21
-34 59 -51 49 -23 84 -24 91 -4 5 12 17 14 61 9 45 -6 59 -4 82 14 19 13 32
17 42 11 8 -5 33 -9 57 -9 38 0 42 -3 42 -24 0 -13 7 -43 15 -66 21 -60 20
-67 -22 -105 -45 -41 -36 -45 24 -10 54 32 62 61 34 115 -24 47 -28 108 -7
116 23 9 67 -20 130 -86 l59 -61 -6 -57 c-6 -72 -44 -157 -88 -200 -19 -18
-64 -54 -101 -79 -65 -45 -80 -64 -58 -78 6 -3 10 -14 10 -24 0 -9 6 -26 14
-36 12 -16 13 -13 9 31 l-5 50 73 59 c92 72 116 101 146 176 48 119 30 189
-67 265 l-51 39 6 297 c7 312 6 317 -38 366 -30 32 -70 29 -113 -11z m92 -5
c30 -20 34 -55 34 -336 l0 -286 -24 0 c-21 0 -32 17 -85 127 -47 96 -60 134
-57 157 3 17 10 89 17 161 11 121 14 132 40 157 27 28 54 35 75 20z m-177
-378 c30 -21 123 -211 119 -244 -7 -56 -102 -28 -137 41 -13 24 -41 70 -62
101 -44 65 -46 74 -22 100 20 22 71 23 102 2z m-138 -56 c34 -36 109 -170 109
-195 0 -29 -34 -46 -76 -38 -29 5 -38 14 -61 62 -15 31 -44 69 -64 86 -33 28
-36 34 -28 61 10 36 24 46 66 46 21 0 40 -8 54 -22z"/>
<path d="M1056 852 c-36 -24 -49 -27 -133 -28 -51 0 -96 -4 -99 -7 -11 -11 68
-20 132 -14 64 5 127 34 139 65 6 15 7 16 -39 -16z"/>
<path d="M1073 695 c-36 -29 -77 -89 -71 -107 2 -6 14 4 26 23 12 20 31 44 43
55 19 17 44 54 37 54 -2 0 -17 -11 -35 -25z"/>
</g>
</svg>
