<?xml version="1.0" standalone="no"?>
<!DOCTYPE svg PUBLIC "-//W3C//DTD SVG 20010904//EN"
 "http://www.w3.org/TR/2001/REC-SVG-20010904/DTD/svg10.dtd">
<svg version="1.0" xmlns="http://www.w3.org/2000/svg"
 width="201.000000pt" height="200.000000pt" viewBox="0 0 201.000000 200.000000"
 preserveAspectRatio="xMidYMid meet">

<g transform="translate(0.000000,200.000000) scale(0.100000,-0.100000)"
fill="#000000" stroke="none">
<path d="M1126 1294 c-20 -11 -31 -13 -39 -5 -20 20 -82 12 -121 -14 -26 -17
-50 -25 -82 -25 -38 0 -51 -6 -87 -39 -25 -23 -57 -41 -79 -45 -40 -7 -83 -49
-96 -94 -12 -44 -7 -322 7 -387 15 -66 58 -169 91 -216 18 -25 21 -38 15 -81
-8 -59 10 -60 21 -1 4 23 13 37 25 40 26 7 23 15 -14 38 -41 26 -92 126 -112
220 -9 42 -15 125 -15 208 0 141 9 188 47 229 22 25 65 23 91 -4 35 -39 82
-149 82 -195 0 -97 -80 -105 -119 -12 -12 27 -24 62 -27 79 -9 44 -26 37 -19
-7 23 -141 105 -207 171 -136 21 23 27 25 50 15 27 -13 50 -6 73 22 10 12 24
14 57 9 37 -5 49 -2 67 15 20 18 24 19 41 6 11 -8 37 -14 58 -14 25 0 38 -5
38 -14 0 -11 -10 -11 -51 -4 -44 8 -68 5 -171 -22 -170 -44 -203 -64 -177
-112 14 -27 62 -45 139 -53 61 -7 68 -10 112 -56 67 -69 80 -61 19 10 l-52 59
-76 7 c-77 8 -113 27 -113 60 0 20 19 28 140 60 154 40 239 26 294 -48 16 -22
21 -43 20 -85 0 -73 -21 -113 -97 -182 -112 -103 -140 -130 -134 -136 3 -3 14
-1 25 5 18 10 21 7 27 -19 11 -48 25 -45 25 6 0 45 3 49 63 104 95 88 125 154
119 269 -2 24 -13 44 -42 73 -44 45 -48 64 -30 172 17 104 -18 284 -60 306
-27 14 -71 12 -104 -6z m110 -46 c23 -44 31 -261 12 -298 -15 -27 -60 -39 -82
-21 -9 8 -16 52 -20 134 -4 67 -12 139 -17 160 -5 20 -7 42 -4 47 3 6 26 10
50 10 40 0 46 -3 61 -32z m-152 3 c31 -34 47 -217 26 -293 -11 -38 -35 -54
-69 -43 -15 4 -19 19 -24 78 -3 46 -17 103 -38 156 l-32 84 23 19 c30 24 92
24 114 -1z m-165 -50 c27 -27 51 -111 58 -204 5 -66 3 -80 -12 -97 -33 -36
-75 -19 -75 30 -1 34 -52 153 -86 197 l-27 36 31 29 c38 33 83 37 111 9z"/>
<path d="M1042 634 c-22 -15 -43 -49 -62 -99 -16 -41 5 -28 25 15 10 22 29 52
43 65 29 30 25 41 -6 19z"/>
</g>
</svg>
