<?xml version="1.0" standalone="no"?>
<!DOCTYPE svg PUBLIC "-//W3C//DTD SVG 20010904//EN"
 "http://www.w3.org/TR/2001/REC-SVG-20010904/DTD/svg10.dtd">
<svg version="1.0" xmlns="http://www.w3.org/2000/svg"
 width="228.000000pt" height="224.000000pt" viewBox="0 0 228.000000 224.000000"
 preserveAspectRatio="xMidYMid meet">

<g transform="translate(0.000000,224.000000) scale(0.100000,-0.100000)"
fill="#000000" stroke="none">
<path d="M1127 1659 c-22 -28 -26 -30 -46 -18 -45 29 -108 -42 -118 -133 -9
-85 -10 -88 -48 -88 -25 0 -37 -6 -46 -22 -6 -12 -15 -92 -20 -177 -4 -86 -16
-220 -26 -299 -16 -133 -16 -148 -1 -220 23 -113 55 -187 94 -224 22 -21 30
-36 24 -42 -6 -6 -10 -30 -9 -56 0 -34 2 -40 9 -25 5 11 9 35 9 54 1 31 3 33
28 26 23 -5 20 1 -29 54 -41 43 -62 77 -77 123 -28 81 -38 222 -22 314 7 38
16 148 21 246 5 97 13 185 19 196 27 51 71 28 71 -37 0 -20 7 -78 15 -130 12
-83 12 -96 -2 -117 -21 -33 -10 -70 29 -90 48 -25 158 -22 204 5 19 12 37 21
39 21 2 0 6 -18 10 -40 4 -22 10 -42 14 -45 4 -2 4 17 0 43 -13 80 -10 145 11
190 31 69 72 67 85 -6 3 -20 24 -91 47 -156 37 -111 40 -125 36 -205 -3 -70
-10 -99 -35 -153 -37 -78 -101 -151 -158 -180 -49 -25 -48 -24 -41 -37 5 -7
25 -4 59 9 29 11 52 20 52 20 0 0 -1 -21 -4 -46 -2 -25 2 -51 8 -57 8 -8 11 6
11 52 0 57 4 68 35 111 57 78 84 147 94 246 6 49 15 129 22 179 16 125 9 183
-25 212 -15 13 -36 23 -47 23 -12 0 -28 14 -40 35 -27 45 -53 53 -91 25 l-29
-21 2 188 c3 196 -2 224 -41 263 -29 29 -64 25 -93 -11z m75 -10 c47 -25 56
-105 41 -357 -7 -125 -6 -124 -81 -137 l-43 -7 3 239 c2 185 6 244 17 256 16
20 34 21 63 6z m-102 -273 l0 -234 -45 -15 -45 -16 -7 27 c-4 15 -7 115 -8
222 0 171 2 199 18 223 13 21 25 27 52 27 l35 0 0 -234z m345 -251 c21 -20 25
-34 25 -84 0 -33 -4 -62 -8 -65 -7 -4 -39 70 -62 147 -11 35 11 37 45 2z
m-207 -41 c3 -35 -1 -44 -24 -59 -41 -26 -104 -30 -168 -10 -31 10 -59 21 -61
25 -13 22 169 92 225 87 22 -2 25 -7 28 -43z"/>
<path d="M1217 829 c-57 -38 -137 -127 -137 -152 0 -13 24 6 78 61 42 43 91
89 107 100 49 34 5 26 -48 -9z"/>
</g>
</svg>
