<?xml version="1.0" standalone="no"?>
<!DOCTYPE svg PUBLIC "-//W3C//DTD SVG 20010904//EN"
 "http://www.w3.org/TR/2001/REC-SVG-20010904/DTD/svg10.dtd">
<svg version="1.0" xmlns="http://www.w3.org/2000/svg"
 width="213.000000pt" height="220.000000pt" viewBox="0 0 213.000000 220.000000"
 preserveAspectRatio="xMidYMid meet">

<g transform="translate(0.000000,220.000000) scale(0.100000,-0.100000)"
fill="#000000" stroke="none">
<path d="M663 1681 c-123 -42 -180 -137 -142 -238 21 -57 109 -123 164 -122
14 0 9 5 -15 15 -88 38 -130 93 -130 170 0 42 4 51 38 83 37 36 96 61 141 61
33 0 61 18 55 35 -8 20 -47 18 -111 -4z"/>
<path d="M842 1670 c-32 -30 -29 -118 8 -285 37 -166 37 -169 6 -161 -46 11
-105 -25 -106 -66 0 -13 -8 -18 -27 -18 -56 -1 -89 -49 -77 -113 4 -23 8 -121
9 -217 1 -199 12 -248 71 -326 31 -40 35 -51 30 -88 l-6 -41 18 37 c13 27 22
34 32 28 8 -5 18 -6 22 -4 4 3 -16 29 -46 58 -44 43 -58 65 -74 118 -27 87
-49 260 -36 287 8 20 11 18 44 -26 43 -58 80 -74 120 -51 17 10 33 12 41 7 23
-14 66 -10 80 8 24 28 14 154 -20 270 -17 56 -33 133 -36 170 -3 38 -14 104
-25 148 -27 106 -36 205 -21 233 7 13 21 22 36 22 44 0 71 -53 134 -270 27
-91 31 -120 30 -215 -1 -194 8 -419 19 -455 9 -30 10 -24 5 36 -3 39 0 104 7
145 11 64 10 85 -5 164 -16 80 -16 94 -4 120 16 33 42 43 64 25 8 -6 24 -42
36 -78 12 -37 43 -114 69 -172 26 -58 50 -121 54 -141 11 -61 -12 -139 -79
-271 -68 -133 -78 -163 -46 -134 18 17 19 16 31 -18 11 -36 40 -69 40 -47 0 7
-7 25 -15 41 -25 48 -21 70 28 170 78 161 85 269 26 388 -17 35 -28 69 -25 77
3 8 8 72 12 142 3 70 9 166 13 213 15 175 2 234 -62 270 -33 18 -72 6 -101
-33 -18 -25 -21 -43 -21 -145 -1 -172 -4 -217 -13 -206 -5 5 -21 52 -36 104
-51 177 -81 255 -110 287 -32 38 -63 42 -94 13z m399 -61 c20 -38 21 -129 5
-343 -9 -115 -18 -211 -20 -213 -2 -2 -16 32 -31 76 -20 61 -35 88 -60 108
l-33 28 10 150 c5 83 16 164 24 183 12 28 18 32 53 32 31 0 43 -5 52 -21z
m-333 -514 c42 -137 52 -244 27 -265 -15 -12 -20 -12 -43 1 -14 8 -35 29 -45
47 -28 48 -86 263 -77 287 9 25 48 46 80 43 23 -3 28 -13 58 -113z m-142 -55
c11 -41 33 -104 47 -139 15 -35 26 -65 24 -66 -7 -6 -46 -25 -51 -25 -3 0 -21
14 -41 31 -40 36 -75 131 -75 208 0 54 14 73 50 69 21 -3 27 -13 46 -78z"/>
<path d="M1350 1678 c0 -18 48 -88 60 -88 13 0 13 7 -1 32 -6 11 -8 22 -6 25
7 6 84 -33 125 -64 63 -47 80 -128 42 -191 -25 -41 -108 -82 -168 -82 -30 0
-44 -5 -49 -16 -9 -24 13 -32 67 -23 114 18 200 97 200 185 0 82 -64 158 -152
179 -30 8 -38 25 -12 25 9 0 14 6 12 13 -6 17 -118 23 -118 5z"/>
<path d="M714 1355 c3 -8 9 -22 13 -32 4 -10 3 -14 -5 -10 -11 8 -62 -12 -62
-24 0 -19 103 -28 115 -9 7 12 -41 90 -56 90 -6 0 -8 -7 -5 -15z"/>
<path d="M945 775 c-22 -13 -65 -30 -95 -37 -52 -12 -53 -13 -21 -16 38 -4
103 18 141 47 38 30 19 33 -25 6z"/>
</g>
</svg>
