<?xml version="1.0" standalone="no"?>
<!DOCTYPE svg PUBLIC "-//W3C//DTD SVG 20010904//EN"
 "http://www.w3.org/TR/2001/REC-SVG-20010904/DTD/svg10.dtd">
<svg version="1.0" xmlns="http://www.w3.org/2000/svg"
 width="217.000000pt" height="197.000000pt" viewBox="0 0 217.000000 197.000000"
 preserveAspectRatio="xMidYMid meet">

<g transform="translate(0.000000,197.000000) scale(0.100000,-0.100000)"
fill="#000000" stroke="none">
<path d="M1170 1275 c-31 -32 -39 -35 -92 -35 -86 0 -128 -26 -128 -80 0 -15
-6 -17 -45 -13 -41 5 -47 3 -80 -30 -19 -19 -35 -45 -35 -56 0 -19 -8 -15 -61
29 -98 82 -149 99 -182 62 -21 -23 -22 -103 -2 -141 8 -16 54 -65 103 -110 61
-55 119 -123 183 -213 123 -172 203 -230 334 -243 96 -10 104 -13 132 -58 20
-31 28 -37 31 -25 2 10 -6 31 -17 47 -25 35 -26 41 -6 41 8 0 15 5 15 10 0 6
-28 10 -65 10 -126 0 -235 38 -308 108 -22 20 -70 80 -107 132 -106 148 -110
153 -191 223 -86 75 -115 120 -105 161 9 37 51 52 91 33 55 -26 189 -144 261
-229 84 -99 127 -125 179 -108 41 14 65 44 65 82 0 27 1 27 48 21 44 -5 51 -3
69 21 37 47 60 29 43 -34 -12 -45 -4 -93 11 -69 5 8 9 23 9 34 0 11 16 46 36
78 20 32 34 59 33 61 -37 24 -65 36 -112 46 -95 19 -137 75 -75 99 13 5 61 14
108 21 138 20 210 -14 268 -124 37 -73 37 -184 -1 -275 -31 -75 -35 -100 -12
-81 9 7 17 11 18 9 1 -2 9 -16 16 -31 20 -39 68 -94 76 -87 3 4 -12 35 -34 69
-23 35 -41 70 -41 78 0 7 7 39 16 70 35 121 3 272 -73 344 -29 27 -107 67
-132 68 -8 0 -39 27 -70 60 -51 54 -60 60 -97 60 -33 0 -46 -6 -74 -35z m144
-37 l41 -42 -44 -13 c-95 -28 -104 -27 -129 14 l-24 37 27 23 c41 36 80 30
129 -19z m-191 -31 c18 -8 38 -22 46 -31 12 -15 12 -19 -7 -32 -12 -8 -22 -24
-22 -34 0 -26 44 -75 80 -90 28 -12 31 -16 28 -53 -4 -48 -22 -62 -69 -53 -29
5 -42 17 -77 70 -23 36 -62 82 -87 104 -25 22 -45 47 -45 56 0 63 77 94 153
63z m-151 -112 c40 -27 134 -147 143 -183 7 -30 -14 -73 -44 -88 -51 -26 -87
-1 -212 149 -54 65 -59 82 -28 121 28 35 89 36 141 1z m378 -114 c0 -26 -15
-34 -46 -27 -15 4 -24 14 -24 26 0 16 7 20 35 20 28 0 35 -4 35 -19z"/>
<path d="M474 883 c-14 -105 -10 -224 9 -275 20 -53 78 -110 134 -133 38 -16
117 -24 129 -13 11 12 -6 28 -30 28 -36 0 -106 28 -144 57 -59 45 -74 95 -72
241 2 152 2 152 -9 152 -5 0 -13 -26 -17 -57z"/>
<path d="M1155 813 c-48 -31 -103 -81 -117 -108 -6 -11 13 3 43 30 31 28 76
61 102 74 26 13 47 26 47 28 0 11 -41 -2 -75 -24z"/>
<path d="M740 533 c0 -4 10 -17 21 -30 l22 -22 -27 -35 c-30 -40 -33 -56 -10
-56 20 0 84 63 84 83 0 9 -15 27 -33 41 -33 25 -57 33 -57 19z"/>
</g>
</svg>
