<?xml version="1.0" standalone="no"?>
<!DOCTYPE svg PUBLIC "-//W3C//DTD SVG 20010904//EN"
 "http://www.w3.org/TR/2001/REC-SVG-20010904/DTD/svg10.dtd">
<svg version="1.0" xmlns="http://www.w3.org/2000/svg"
 width="209.000000pt" height="191.000000pt" viewBox="0 0 209.000000 191.000000"
 preserveAspectRatio="xMidYMid meet">

<g transform="translate(0.000000,191.000000) scale(0.100000,-0.100000)"
fill="#000000" stroke="none">
<path d="M821 1694 c-29 -37 -27 -97 9 -259 37 -167 38 -184 7 -178 -38 7 -77
-14 -93 -52 -11 -27 -20 -35 -40 -35 -14 0 -37 -12 -51 -26 -24 -24 -25 -30
-18 -82 4 -31 8 -133 9 -227 2 -190 16 -252 77 -328 26 -32 30 -44 25 -73 -8
-40 0 -45 14 -9 6 15 17 25 30 25 29 0 25 8 -24 51 -24 22 -52 59 -64 87 -37
85 -64 289 -46 337 5 12 14 4 35 -34 45 -79 85 -98 130 -62 18 14 29 17 42 9
32 -17 71 -5 86 26 18 38 5 129 -39 270 -16 54 -30 114 -30 132 0 19 -14 104
-31 189 -32 160 -33 211 -3 235 23 20 60 -2 84 -49 11 -22 38 -102 61 -178 38
-127 41 -149 45 -283 7 -215 7 -229 4 -305 -1 -44 4 -87 14 -115 l16 -45 -6
45 c-4 25 -6 72 -4 105 6 99 4 207 -5 267 -9 69 -2 104 27 119 18 10 24 8 40
-11 10 -12 27 -52 38 -89 11 -36 41 -109 67 -161 45 -91 47 -99 48 -180 0 -85
0 -85 -68 -224 -65 -133 -74 -162 -44 -137 12 9 18 3 31 -34 10 -25 22 -45 28
-45 6 0 8 8 5 18 -33 99 -33 97 2 174 59 129 73 185 69 273 -2 65 -9 92 -33
141 -25 51 -29 68 -24 105 14 92 32 476 25 513 -14 73 -90 120 -136 83 -44
-34 -50 -57 -51 -202 -1 -204 -7 -210 -52 -58 -57 190 -77 241 -107 273 -35
38 -71 39 -99 4z m400 -51 c21 -27 21 -33 15 -203 -7 -228 -17 -350 -27 -350
-5 0 -18 33 -29 73 -16 55 -29 79 -56 104 l-36 32 6 123 c4 68 9 142 12 166
10 79 72 108 115 55z m-356 -437 c23 -53 75 -253 75 -284 0 -57 -10 -73 -44
-70 -40 4 -64 47 -105 189 -37 128 -39 162 -9 183 38 27 67 20 83 -18z m-146
-55 c11 -7 98 -240 104 -280 1 -8 -10 -19 -26 -25 -22 -8 -32 -6 -55 10 -37
28 -74 123 -80 208 -4 59 -2 71 13 83 22 15 25 16 44 4z"/>
<path d="M1341 1523 c-47 -56 -39 -89 9 -38 l23 24 36 -29 c42 -35 51 -37 51
-11 0 15 -70 91 -84 91 -3 0 -18 -17 -35 -37z"/>
<path d="M1366 1454 c-11 -29 -7 -349 4 -338 15 15 34 251 26 308 -7 47 -19
59 -30 30z"/>
<path d="M919 794 c-25 -13 -66 -28 -90 -33 l-44 -9 43 -1 c45 -1 89 15 132
49 34 27 14 24 -41 -6z"/>
</g>
</svg>
