<?xml version="1.0" standalone="no"?>
<!DOCTYPE svg PUBLIC "-//W3C//DTD SVG 20010904//EN"
 "http://www.w3.org/TR/2001/REC-SVG-20010904/DTD/svg10.dtd">
<svg version="1.0" xmlns="http://www.w3.org/2000/svg"
 width="215.000000pt" height="214.000000pt" viewBox="0 0 215.000000 214.000000"
 preserveAspectRatio="xMidYMid meet">

<g transform="translate(0.000000,214.000000) scale(0.100000,-0.100000)"
fill="#000000" stroke="none">
<path d="M847 1588 c3 -18 9 -44 13 -58 6 -20 -1 -34 -35 -72 -71 -79 -110
-252 -85 -372 10 -48 9 -63 -4 -97 -24 -59 -21 -114 6 -133 12 -9 30 -16 39
-16 14 0 17 -24 22 -186 7 -215 19 -257 72 -262 17 -2 39 4 50 12 19 13 20 11
35 -47 18 -73 50 -104 93 -88 34 13 57 50 64 101 7 48 16 51 33 10 21 -52 85
-54 110 -5 12 24 16 79 18 264 l2 235 41 40 c54 51 90 131 96 210 6 74 -29
204 -83 313 -27 53 -35 81 -32 110 4 47 -14 59 -27 17 -10 -30 -11 -31 -33
-16 -34 22 -38 7 -8 -30 103 -126 147 -225 154 -349 4 -72 1 -93 -18 -137 -12
-28 -41 -69 -65 -91 l-42 -39 -6 -243 c-3 -134 -10 -256 -16 -271 -15 -39 -45
-36 -71 8 -34 54 -45 166 -33 330 5 77 8 141 6 143 -2 3 -8 0 -14 -6 -7 -7
-14 -102 -20 -255 -10 -301 -14 -318 -70 -318 -22 0 -32 7 -45 32 -15 29 -16
59 -11 258 4 135 2 231 -3 240 -7 11 -10 8 -10 -14 0 -97 -24 -325 -37 -349
-17 -33 -58 -56 -74 -40 -22 22 -29 94 -29 306 0 128 -4 217 -9 217 -6 0 -11
-15 -13 -32 -3 -29 -6 -33 -33 -33 -25 0 -31 4 -33 27 -2 14 6 45 17 67 19 37
20 47 10 118 -22 157 7 283 87 371 41 47 56 71 35 57 -6 -3 -13 11 -16 32 -10
57 -15 73 -25 73 -5 0 -7 -15 -3 -32z"/>
</g>
</svg>
