<?xml version="1.0" standalone="no"?>
<!DOCTYPE svg PUBLIC "-//W3C//DTD SVG 20010904//EN"
 "http://www.w3.org/TR/2001/REC-SVG-20010904/DTD/svg10.dtd">
<svg version="1.0" xmlns="http://www.w3.org/2000/svg"
 width="220.000000pt" height="216.000000pt" viewBox="0 0 220.000000 216.000000"
 preserveAspectRatio="xMidYMid meet">

<g transform="translate(0.000000,216.000000) scale(0.100000,-0.100000)"
fill="#000000" stroke="none">
<path d="M880 1641 c0 -5 5 -32 12 -60 11 -49 11 -50 -22 -87 -75 -86 -113
-249 -91 -390 11 -62 10 -77 -3 -103 -21 -40 -21 -105 1 -126 11 -12 26 -15
50 -12 30 5 33 3 33 -19 0 -30 33 -64 63 -64 12 0 37 9 55 20 l33 21 -8 -118
c-21 -297 -4 -405 65 -411 53 -5 74 22 97 123 l7 30 13 -32 c15 -35 41 -53 78
-53 62 0 79 78 75 348 l-3 197 34 30 c19 16 47 57 63 90 40 85 39 171 -3 302
-17 54 -45 124 -61 156 -25 47 -29 65 -24 97 8 48 -10 55 -25 10 -13 -35 -12
-35 -44 -14 -40 26 -30 0 26 -68 67 -82 114 -182 129 -270 20 -117 -8 -211
-81 -279 l-41 -38 1 -243 c1 -254 -4 -289 -42 -296 -26 -5 -53 23 -73 73 -13
36 -15 76 -12 239 1 108 0 196 -3 196 -15 0 -20 -57 -28 -280 -9 -272 -17
-304 -74 -298 -53 5 -58 35 -51 311 3 142 2 237 -3 237 -5 0 -20 -11 -32 -24
-28 -30 -65 -40 -92 -25 -18 9 -20 18 -16 47 3 21 8 46 13 57 7 19 6 19 -12 4
-83 -70 -135 -20 -84 80 17 34 18 46 9 102 -26 153 11 306 92 385 35 34 53 64
30 50 -4 -3 -14 21 -21 54 -7 33 -17 60 -21 60 -5 0 -9 -4 -9 -9z"/>
</g>
</svg>
