<?xml version="1.0" standalone="no"?>
<!DOCTYPE svg PUBLIC "-//W3C//DTD SVG 20010904//EN"
 "http://www.w3.org/TR/2001/REC-SVG-20010904/DTD/svg10.dtd">
<svg version="1.0" xmlns="http://www.w3.org/2000/svg"
 width="212.000000pt" height="213.000000pt" viewBox="0 0 212.000000 213.000000"
 preserveAspectRatio="xMidYMid meet">

<g transform="translate(0.000000,213.000000) scale(0.100000,-0.100000)"
fill="#000000" stroke="none">
<path d="M840 1327 c-26 -7 -62 -23 -82 -35 -49 -30 -163 -153 -188 -202 -21
-42 -27 -115 -9 -125 6 -5 3 -13 -10 -22 -16 -10 -21 -25 -21 -57 0 -76 75
-156 236 -251 50 -30 140 -91 200 -136 60 -45 128 -91 152 -101 27 -12 51 -33
64 -54 25 -42 32 -43 25 -4 -5 20 -3 30 6 30 6 0 -19 16 -58 35 -38 19 -106
62 -150 96 -44 34 -136 99 -205 144 -160 106 -194 132 -225 174 -31 44 -33 85
-3 105 33 24 64 19 158 -20 133 -56 197 -74 265 -74 l63 0 16 47 c38 110 -1
209 -99 254 -98 45 -186 15 -263 -89 -53 -71 -83 -89 -124 -76 -18 5 -20 12
-14 50 7 56 44 114 116 185 88 86 134 104 255 103 118 -2 241 -31 292 -70 41
-31 54 -57 102 -197 21 -62 53 -152 72 -202 28 -78 33 -103 32 -182 0 -51 2
-93 4 -93 2 0 8 12 14 27 l10 28 55 -59 c30 -33 57 -56 60 -53 7 7 -40 68 -80
106 -14 14 -26 33 -26 43 0 46 -34 175 -65 249 -19 44 -49 125 -66 179 -39
126 -60 158 -129 192 -99 50 -298 78 -380 55z m125 -226 c58 -27 86 -62 92
-115 7 -58 -8 -60 -39 -7 -24 43 -68 61 -143 61 -22 0 -34 4 -30 10 15 24 -15
6 -73 -45 -35 -30 -72 -55 -83 -55 -10 0 -19 2 -19 5 0 13 116 132 143 148 41
22 101 21 152 -2z m-45 -92 l70 -12 30 -53 c16 -29 27 -60 24 -69 -12 -31
-155 -10 -267 40 l-59 26 49 39 c54 44 57 45 153 29z"/>
</g>
</svg>
