<?xml version="1.0" standalone="no"?>
<!DOCTYPE svg PUBLIC "-//W3C//DTD SVG 20010904//EN"
 "http://www.w3.org/TR/2001/REC-SVG-20010904/DTD/svg10.dtd">
<svg version="1.0" xmlns="http://www.w3.org/2000/svg"
 width="214.000000pt" height="213.000000pt" viewBox="0 0 214.000000 213.000000"
 preserveAspectRatio="xMidYMid meet">

<g transform="translate(0.000000,213.000000) scale(0.100000,-0.100000)"
fill="#000000" stroke="none">
<path d="M849 1630 c0 -53 -2 -56 -42 -85 -76 -55 -98 -119 -117 -335 -9 -109
-2 -221 16 -252 21 -37 50 -58 79 -58 28 0 33 -4 44 -40 14 -48 41 -64 94 -57
33 5 43 2 61 -20 15 -18 35 -26 68 -30 l46 -5 5 -157 c2 -86 10 -173 16 -194
25 -79 80 -100 125 -47 31 37 35 65 44 310 l7 195 25 3 c34 5 58 28 65 66 4
17 23 67 43 111 65 145 55 289 -28 404 -34 47 -88 84 -148 102 -40 12 -42 14
-42 53 0 52 -15 79 -25 46 -10 -31 2 -84 23 -102 9 -8 39 -26 66 -39 63 -31
130 -106 156 -177 31 -80 24 -161 -23 -267 -19 -44 -40 -97 -47 -117 -6 -21
-16 -40 -21 -44 -17 -10 -45 6 -63 37 -16 27 -18 45 -13 118 l5 86 -14 -45
c-21 -65 -21 -159 0 -192 15 -23 16 -45 7 -245 -10 -222 -22 -287 -53 -307
-27 -16 -56 19 -68 83 -5 30 -10 117 -11 195 -1 77 -4 152 -8 166 l-7 25 -8
-22 c-9 -27 -46 -39 -74 -24 -11 6 -29 29 -39 51 -20 45 -28 48 -43 20 -8 -14
-21 -20 -46 -20 -31 0 -37 4 -50 35 -7 19 -14 45 -14 58 0 33 -10 40 -31 21
-42 -38 -88 18 -96 119 -7 87 22 329 47 384 11 24 43 67 71 94 50 48 51 51 45
92 -11 65 -26 69 -27 7z"/>
</g>
</svg>
