<?xml version="1.0" standalone="no"?>
<!DOCTYPE svg PUBLIC "-//W3C//DTD SVG 20010904//EN"
 "http://www.w3.org/TR/2001/REC-SVG-20010904/DTD/svg10.dtd">
<svg version="1.0" xmlns="http://www.w3.org/2000/svg"
 width="215.000000pt" height="228.000000pt" viewBox="0 0 215.000000 228.000000"
 preserveAspectRatio="xMidYMid meet">

<g transform="translate(0.000000,228.000000) scale(0.100000,-0.100000)"
fill="#000000" stroke="none">
<path d="M1073 1651 c-10 -11 -24 -27 -31 -35 -7 -9 -21 -16 -32 -16 -45 0
-49 -80 -10 -179 16 -43 17 -52 2 -131 -8 -47 -16 -87 -18 -89 -2 -2 -9 1 -16
6 -49 39 -127 6 -128 -54 0 -19 -4 -21 -39 -16 -34 5 -41 2 -52 -18 -21 -38
-15 -166 9 -222 17 -39 19 -53 10 -84 -12 -45 -4 -161 17 -230 8 -26 28 -70
45 -97 l32 -49 -22 -59 c-12 -33 -19 -62 -16 -65 6 -7 45 75 46 96 0 8 6 11
16 7 13 -5 11 1 -6 26 -37 56 -69 132 -80 188 -13 68 -13 167 0 175 6 3 22 -2
38 -13 45 -32 69 -35 110 -15 25 13 51 18 79 15 41 -4 73 14 85 48 7 23 82
-17 95 -51 10 -27 9 -31 -13 -46 -26 -16 -54 -62 -54 -85 0 -7 9 1 19 19 11
17 41 44 67 59 45 27 47 29 24 34 -19 4 -26 13 -28 36 -3 26 -9 33 -42 43 -42
12 -100 71 -100 101 0 28 29 53 54 45 12 -3 50 -13 86 -22 36 -8 83 -27 105
-42 52 -35 102 -110 111 -167 15 -105 -66 -268 -175 -349 -59 -44 -49 -63 15
-26 l35 21 5 -30 c6 -30 30 -58 40 -47 3 3 1 14 -5 25 -18 35 -12 73 19 122
57 88 80 161 80 250 0 95 -12 124 -80 195 -53 55 -65 85 -135 359 -19 76 -39
144 -43 150 -4 6 -7 50 -7 98 0 78 -2 89 -24 112 -29 31 -64 33 -88 7z m74
-27 c21 -21 24 -32 20 -61 -8 -49 -12 -50 -42 -15 -14 17 -35 34 -45 37 -26 8
-25 30 2 49 30 21 35 20 65 -10z m-41 -85 c18 -18 42 -51 53 -74 28 -60 130
-475 117 -475 -6 0 -54 11 -106 24 -93 23 -107 33 -109 75 -1 10 9 12 37 8 20
-3 45 -8 56 -13 17 -7 18 -6 3 17 -8 13 -22 50 -31 81 -9 32 -37 101 -61 154
-54 116 -79 196 -70 225 6 18 12 20 43 16 21 -4 49 -20 68 -38z m5 -366 l18
-53 -42 0 c-37 0 -45 4 -61 31 -14 25 -17 42 -11 87 13 111 14 112 48 46 16
-32 38 -82 48 -111z m-172 22 c60 -31 140 -160 120 -196 -15 -29 -10 -64 15
-102 22 -32 23 -37 10 -56 -22 -31 -78 -28 -109 5 -30 33 -106 225 -113 285
-4 40 -1 48 19 63 28 19 24 19 58 1z m-102 -92 c7 -9 22 -46 34 -82 12 -36 36
-99 55 -138 31 -69 32 -73 14 -83 -54 -29 -111 6 -154 93 -21 43 -26 69 -26
126 0 86 12 115 43 105 12 -3 27 -13 34 -21z"/>
<path d="M969 724 c-43 -13 -86 -44 -61 -44 6 0 13 4 17 9 3 5 30 15 60 22 30
7 52 16 49 21 -6 10 -9 10 -65 -8z"/>
</g>
</svg>
