<?xml version="1.0" standalone="no"?>
<!DOCTYPE svg PUBLIC "-//W3C//DTD SVG 20010904//EN"
 "http://www.w3.org/TR/2001/REC-SVG-20010904/DTD/svg10.dtd">
<svg version="1.0" xmlns="http://www.w3.org/2000/svg"
 width="208.000000pt" height="215.000000pt" viewBox="0 0 208.000000 215.000000"
 preserveAspectRatio="xMidYMid meet">

<g transform="translate(0.000000,215.000000) scale(0.100000,-0.100000)"
fill="#000000" stroke="none">
<path d="M1032 1613 c-7 -3 -19 -18 -28 -35 -15 -28 -16 -29 -39 -14 -75 49
-139 -18 -152 -159 -6 -62 -6 -63 -30 -54 -19 7 -29 4 -47 -14 -21 -22 -23
-33 -29 -192 -3 -94 -14 -222 -23 -285 -14 -94 -15 -127 -6 -187 21 -136 78
-263 118 -263 20 0 18 -30 -6 -86 -11 -26 -18 -49 -16 -52 13 -13 36 11 47 50
7 24 19 48 26 55 12 9 7 17 -25 43 -97 77 -142 262 -111 450 6 36 14 144 17
242 6 153 10 179 26 197 11 12 26 21 35 21 14 0 20 -26 37 -147 18 -132 19
-150 6 -165 -19 -23 -17 -23 56 7 97 39 121 35 189 -33 53 -53 60 -65 78 -134
l18 -76 -35 -53 c-51 -78 -65 -128 -48 -182 l14 -42 6 60 c7 65 24 105 77 178
26 35 31 47 19 47 -9 0 -18 12 -22 28 -3 15 -7 32 -9 38 -2 7 13 11 40 10 38
-1 49 4 84 38 22 22 42 38 44 35 10 -14 57 -231 57 -266 0 -62 -32 -152 -84
-235 -25 -41 -46 -78 -46 -82 0 -4 9 -4 20 -1 16 5 20 2 20 -19 0 -32 17 -76
29 -76 6 0 8 27 5 68 -5 62 -3 73 29 142 42 89 62 191 53 266 -3 29 -21 95
-40 146 -26 74 -31 98 -23 118 5 14 10 68 11 120 1 110 -11 139 -70 167 -33
16 -36 16 -79 -5 l-45 -22 0 113 c0 61 -5 130 -11 151 -20 72 -81 112 -137 89z
m71 -35 c52 -27 62 -76 52 -252 l-7 -124 -27 8 c-41 11 -89 -12 -97 -47 -19
-89 -23 -62 -21 147 2 197 4 229 20 253 19 29 45 34 80 15z m-131 -46 c4 -4 8
-104 10 -224 l3 -216 -61 -24 -60 -24 -12 141 c-15 172 -15 210 -1 276 14 66
40 93 82 85 17 -4 35 -10 39 -14z m322 -272 c58 -22 71 -121 31 -248 -31 -101
-105 -152 -149 -103 -33 37 -31 196 5 307 14 46 61 64 113 44z m-160 -78 c2
-4 -1 -47 -7 -96 l-12 -88 -27 27 c-50 49 -55 146 -10 158 29 8 51 7 56 -1z"/>
<path d="M1075 789 c-78 -26 -170 -34 -220 -21 -35 10 -38 9 -21 -3 10 -8 41
-17 70 -20 83 -11 236 25 236 55 0 6 -1 10 -2 9 -2 -1 -30 -10 -63 -20z"/>
<path d="M925 677 c-39 -19 -76 -41 -84 -50 -20 -25 0 -22 79 13 38 17 89 33
114 36 50 7 59 18 24 28 -42 11 -63 6 -133 -27z"/>
</g>
</svg>
