<?xml version="1.0" standalone="no"?>
<!DOCTYPE svg PUBLIC "-//W3C//DTD SVG 20010904//EN"
 "http://www.w3.org/TR/2001/REC-SVG-20010904/DTD/svg10.dtd">
<svg version="1.0" xmlns="http://www.w3.org/2000/svg"
 width="212.000000pt" height="220.000000pt" viewBox="0 0 212.000000 220.000000"
 preserveAspectRatio="xMidYMid meet">

<g transform="translate(0.000000,220.000000) scale(0.100000,-0.100000)"
fill="#000000" stroke="none">
<path d="M961 1625 c-34 -44 -40 -235 -15 -451 l7 -56 -39 21 c-21 12 -47 21
-56 21 -26 0 -58 -36 -58 -66 0 -23 -3 -25 -25 -20 -32 8 -63 -8 -75 -40 -7
-18 -5 -40 10 -82 17 -49 19 -64 9 -116 -23 -127 14 -293 82 -370 l42 -48 -11
-50 c-7 -27 -9 -55 -5 -61 8 -14 21 18 22 55 1 15 7 33 15 40 11 11 7 20 -26
58 -54 61 -75 104 -89 185 -11 65 -8 189 5 202 4 4 23 -9 44 -29 70 -68 118
-76 152 -28 22 30 13 43 -10 15 -18 -22 -73 -18 -105 7 -15 12 -45 49 -66 81
-30 47 -39 70 -39 104 0 30 5 45 15 49 35 14 62 -8 128 -99 37 -52 78 -102 92
-111 36 -24 82 -20 111 9 21 21 31 25 61 19 29 -6 34 -10 28 -28 -15 -52 -26
-142 -19 -166 5 -19 10 -5 25 65 35 160 34 154 11 148 -47 -12 -172 80 -172
128 0 11 10 23 23 28 31 12 149 -4 202 -28 56 -25 110 -97 126 -170 26 -110
-25 -266 -130 -405 -53 -70 -60 -90 -19 -62 31 22 35 21 42 -14 9 -47 26 -35
26 19 0 36 9 67 34 118 70 138 94 296 60 396 -9 26 -36 69 -60 96 l-44 49 3
129 c4 168 -7 341 -23 376 -26 53 -94 45 -126 -15 l-18 -33 -12 53 c-22 95
-88 133 -133 77z m94 -19 c20 -30 34 -170 37 -378 l3 -156 -47 -4 c-26 -2 -54
2 -62 7 -10 8 -16 63 -25 220 -6 116 -9 219 -6 230 2 11 6 32 9 47 12 57 63
76 91 34z m169 -68 c13 -19 16 -61 16 -255 0 -180 -3 -233 -12 -233 -35 1
-102 29 -109 46 -4 10 -8 92 -8 182 -1 173 7 212 51 259 27 29 43 29 62 1z
m-280 -448 c31 -29 42 -46 39 -60 -9 -35 7 -73 48 -110 44 -40 45 -66 4 -76
-41 -10 -64 6 -130 89 -106 134 -118 197 -39 197 26 0 45 -10 78 -40z"/>
<path d="M1003 770 c-45 -9 -128 -48 -120 -57 3 -2 16 1 28 8 33 17 118 39
159 40 29 0 31 2 15 9 -24 10 -28 10 -82 0z"/>
</g>
</svg>
