<?xml version="1.0" standalone="no"?>
<!DOCTYPE svg PUBLIC "-//W3C//DTD SVG 20010904//EN"
 "http://www.w3.org/TR/2001/REC-SVG-20010904/DTD/svg10.dtd">
<svg version="1.0" xmlns="http://www.w3.org/2000/svg"
 width="216.000000pt" height="215.000000pt" viewBox="0 0 216.000000 215.000000"
 preserveAspectRatio="xMidYMid meet">

<g transform="translate(0.000000,215.000000) scale(0.100000,-0.100000)"
fill="#000000" stroke="none">
<path d="M826 1390 c-63 -11 -103 -27 -143 -57 -24 -17 -45 -23 -87 -23 -102
0 -288 -30 -343 -55 -89 -40 -116 -118 -70 -200 28 -49 88 -85 143 -85 52 0
76 25 78 80 l1 40 87 0 c81 0 88 -2 88 -20 0 -17 -7 -20 -39 -20 -57 0 -101
-39 -101 -89 0 -40 18 -63 60 -79 21 -8 24 -15 22 -48 -3 -54 34 -94 87 -94
13 0 21 -9 26 -29 7 -32 39 -65 71 -75 13 -4 48 3 88 18 36 14 103 30 148 36
107 14 161 32 239 79 64 38 64 38 126 28 58 -10 85 -6 70 9 -3 4 -27 10 -53
15 -57 11 -61 14 -44 34 15 18 5 33 -14 20 -7 -6 -44 -34 -82 -62 -76 -58
-152 -91 -228 -100 l-49 -6 16 24 c25 34 21 88 -7 124 -19 24 -22 34 -14 54
12 32 1 78 -23 94 -18 13 -18 15 -2 29 12 10 38 16 74 16 59 0 112 21 122 47
8 20 -3 19 -33 -2 -33 -23 -118 -21 -191 5 -66 23 -77 19 -113 -42 -30 -51
-60 -76 -93 -76 -49 0 -48 36 13 247 27 95 106 133 272 133 99 0 167 -13 269
-54 l63 -24 40 19 c22 11 40 24 40 29 0 13 -10 13 -49 -1 -28 -10 -38 -9 -69
9 -21 11 -62 27 -92 36 -65 20 -235 29 -304 16z m-196 -117 c-1 -29 -33 -139
-43 -145 -7 -4 -54 -8 -106 -8 -85 0 -96 2 -123 25 -40 34 -47 25 -14 -18 55
-72 40 -127 -34 -127 -104 0 -159 147 -80 214 31 25 84 40 205 55 91 11 195
13 195 4z m195 -194 c20 -12 35 -25 33 -30 -6 -19 -126 -100 -174 -118 -28
-11 -78 -23 -111 -26 -58 -7 -60 -6 -86 25 -33 38 -33 42 -4 75 15 18 33 27
56 28 30 2 35 -2 42 -26 11 -40 28 -57 57 -57 42 0 88 37 118 95 16 30 30 55
31 55 1 0 18 -10 38 -21z m45 -108 c5 -11 10 -28 10 -38 0 -62 -159 -163 -255
-163 -59 0 -73 11 -81 62 l-6 34 67 13 c69 12 133 40 195 85 43 30 56 32 70 7z
m40 -161 c17 -42 -4 -70 -81 -109 -75 -37 -142 -42 -159 -12 -18 36 -11 46 55
75 36 16 84 43 108 61 46 36 57 34 77 -15z"/>
<path d="M927 1008 c-7 -20 21 -117 44 -155 11 -18 30 -38 40 -44 18 -9 17 -6
-5 28 -13 21 -34 71 -46 111 -11 39 -22 72 -24 72 -2 0 -6 -6 -9 -12z"/>
<path d="M760 618 c0 -6 10 -22 22 -35 l22 -23 -22 -30 c-24 -31 -29 -60 -11
-60 16 0 79 66 79 83 0 16 -64 77 -80 77 -6 0 -10 -5 -10 -12z"/>
<path d="M236 571 c-4 -5 -3 -12 2 -15 17 -10 388 -27 455 -20 61 6 86 19 55
28 -31 10 -507 16 -512 7z"/>
</g>
</svg>
