<?xml version="1.0" standalone="no"?>
<!DOCTYPE svg PUBLIC "-//W3C//DTD SVG 20010904//EN"
 "http://www.w3.org/TR/2001/REC-SVG-20010904/DTD/svg10.dtd">
<svg version="1.0" xmlns="http://www.w3.org/2000/svg"
 width="207.000000pt" height="212.000000pt" viewBox="0 0 207.000000 212.000000"
 preserveAspectRatio="xMidYMid meet">

<g transform="translate(0.000000,212.000000) scale(0.100000,-0.100000)"
fill="#000000" stroke="none">
<path d="M492 1313 c-12 -3 -30 -15 -39 -29 -28 -43 -13 -111 55 -247 48 -95
68 -151 92 -252 17 -71 43 -152 58 -179 24 -45 144 -166 163 -166 5 0 9 -28 9
-62 0 -70 17 -70 21 0 2 33 7 42 21 42 31 0 20 14 -46 58 -82 56 -139 116
-159 168 -9 23 -30 95 -47 160 -21 78 -54 167 -96 256 -72 151 -76 178 -31
212 26 19 30 19 55 5 15 -8 57 -60 95 -114 83 -123 107 -167 107 -198 0 -50
32 -131 65 -164 38 -38 71 -42 109 -12 25 20 28 20 66 5 32 -13 45 -13 67 -4
l28 12 -40 5 c-54 8 -71 20 -95 66 -12 22 -19 32 -16 22 19 -62 19 -65 -14
-82 -69 -36 -118 4 -140 112 -27 129 24 248 92 212 14 -7 18 -22 19 -62 0 -29
9 -77 19 -107 l18 -55 -6 65 c-13 125 -9 166 17 194 28 30 74 34 108 11 21
-15 22 -21 16 -110 -5 -74 -2 -109 12 -160 30 -112 83 -143 148 -85 19 17 46
30 60 30 14 0 61 19 104 41 43 23 91 48 106 56 75 40 157 21 157 -35 -1 -36
-21 -59 -102 -116 -57 -39 -79 -64 -137 -154 -93 -143 -115 -169 -172 -197
-46 -24 -48 -26 -43 -62 8 -53 12 -63 24 -63 7 0 11 12 10 27 -3 47 -1 52 28
67 43 22 90 75 129 144 65 116 119 180 193 228 94 60 116 104 85 164 -31 60
-131 64 -219 9 -68 -44 -156 -89 -172 -89 -11 0 -11 6 -2 28 14 35 15 189 2
202 -8 8 -13 -19 -17 -87 -9 -149 -27 -183 -96 -183 -53 0 -66 34 -66 175 0
151 11 175 80 175 35 0 48 -5 63 -25 26 -32 35 -32 20 1 -24 51 -118 73 -152
35 -17 -19 -18 -19 -53 5 -53 36 -89 32 -133 -14 -27 -29 -41 -37 -56 -32 -36
13 -86 -22 -108 -75 l-13 -30 -66 100 c-91 139 -126 169 -185 158z"/>
<path d="M943 751 c-34 -3 -65 -10 -70 -15 -9 -10 144 0 197 13 34 9 33 9 -15
8 -27 0 -78 -3 -112 -6z"/>
<path d="M1166 738 c-24 -37 -39 -127 -29 -168 9 -33 10 -31 16 36 4 39 14 88
23 109 18 44 12 57 -10 23z"/>
</g>
</svg>
