<?xml version="1.0" standalone="no"?>
<!DOCTYPE svg PUBLIC "-//W3C//DTD SVG 20010904//EN"
 "http://www.w3.org/TR/2001/REC-SVG-20010904/DTD/svg10.dtd">
<svg version="1.0" xmlns="http://www.w3.org/2000/svg"
 width="200.000000pt" height="216.000000pt" viewBox="0 0 200.000000 216.000000"
 preserveAspectRatio="xMidYMid meet">

<g transform="translate(0.000000,216.000000) scale(0.100000,-0.100000)"
fill="#000000" stroke="none">
<path d="M1097 1569 c-9 -5 -24 -23 -32 -39 -21 -40 -83 -307 -97 -417 -10
-76 -15 -93 -29 -93 -13 0 -18 13 -24 55 -9 74 -42 115 -94 115 -27 0 -44 -7
-61 -25 -17 -18 -34 -25 -60 -25 -42 0 -74 -20 -95 -59 -10 -20 -25 -31 -50
-35 -54 -11 -70 -43 -71 -151 -1 -49 -5 -117 -9 -150 -4 -34 -2 -94 4 -138 10
-72 20 -101 64 -181 13 -25 14 -34 1 -75 -7 -25 -14 -53 -14 -61 0 -28 26 12
43 67 l17 51 -43 83 c-40 81 -42 88 -46 193 l-3 110 36 -32 c46 -40 77 -48
127 -32 26 9 43 10 50 3 6 -6 -10 -15 -48 -26 -56 -15 -118 -57 -95 -65 6 -2
24 4 40 12 16 8 68 23 115 33 48 9 87 21 87 25 0 5 -8 8 -17 8 -16 0 -15 2 3
20 17 18 23 19 52 8 37 -14 37 -17 16 -78 -17 -48 -14 -114 6 -134 9 -8 10 -2
5 25 -10 54 9 106 70 194 l56 80 -38 6 c-47 7 -99 33 -107 54 -10 27 -7 80 6
93 7 7 22 12 34 12 25 0 177 -36 217 -52 75 -30 106 -126 88 -275 -15 -124
-39 -184 -111 -273 -60 -76 -68 -90 -50 -90 6 0 10 -13 10 -29 0 -16 7 -34 15
-41 13 -11 15 -6 15 38 0 40 6 59 34 99 83 121 116 224 116 370 0 89 -8 119
-46 175 l-26 37 17 93 c22 127 32 412 16 461 -21 62 -52 81 -94 56z m65 -31
c21 -37 17 -340 -5 -460 -11 -54 -23 -98 -28 -98 -6 0 -42 7 -81 16 l-71 16 6
52 c3 28 17 101 31 161 15 61 36 149 47 198 30 122 70 168 101 115z m-287
-398 c9 -10 20 -40 22 -65 5 -40 3 -45 -14 -45 -34 0 -58 -37 -58 -90 0 -56
20 -84 78 -107 20 -8 37 -18 37 -22 -1 -3 -11 -18 -23 -33 l-23 -28 -34 19
c-19 10 -43 31 -52 47 -38 66 -64 304 -36 332 19 19 82 15 103 -8z m-144 -96
c7 -85 32 -191 55 -236 19 -37 11 -48 -35 -48 -32 0 -45 7 -74 39 -64 71 -92
217 -53 276 17 26 72 57 91 51 6 -1 13 -38 16 -82z m-151 -64 c0 -51 25 -125
61 -176 15 -23 25 -44 22 -48 -4 -3 -23 -6 -43 -6 -72 0 -117 79 -108 189 4
41 11 59 28 73 29 24 40 15 40 -32z"/>
<path d="M1332 1541 c-18 -3 -33 -10 -33 -16 0 -14 78 -23 209 -24 80 -1 112
-4 112 -13 0 -7 -73 -86 -162 -175 -122 -123 -159 -166 -150 -175 16 -16 105
-22 217 -13 82 6 95 9 95 25 0 24 -34 29 -149 22 l-94 -5 157 159 c175 177
182 191 106 211 -47 12 -251 15 -308 4z"/>
<path d="M1624 1218 c40 -56 41 -63 5 -107 -23 -30 -30 -44 -22 -52 15 -15 46
3 78 45 33 43 32 54 -10 99 -39 42 -80 54 -51 15z"/>
</g>
</svg>
