<?xml version="1.0" standalone="no"?>
<!DOCTYPE svg PUBLIC "-//W3C//DTD SVG 20010904//EN"
 "http://www.w3.org/TR/2001/REC-SVG-20010904/DTD/svg10.dtd">
<svg version="1.0" xmlns="http://www.w3.org/2000/svg"
 width="188.000000pt" height="200.000000pt" viewBox="0 0 188.000000 200.000000"
 preserveAspectRatio="xMidYMid meet">

<g transform="translate(0.000000,200.000000) scale(0.100000,-0.100000)"
fill="#000000" stroke="none">
<path d="M1190 1385 c0 -2 18 -14 40 -25 22 -11 72 -51 112 -88 39 -37 66 -58
60 -47 -30 55 -212 193 -212 160z"/>
<path d="M731 1349 c-48 -24 -70 -43 -92 -77 -16 -25 -29 -50 -29 -56 0 -5 13
11 29 36 32 50 68 79 124 99 20 7 37 17 37 21 0 11 0 11 -69 -23z"/>
<path d="M1140 1375 c0 -2 24 -16 53 -29 52 -25 159 -122 197 -181 11 -17 20
-26 20 -21 0 27 -112 150 -172 190 -28 19 -98 48 -98 41z"/>
<path d="M785 1342 c-28 -10 -65 -27 -82 -40 -35 -24 -70 -89 -78 -142 -4 -25
1 -19 16 23 26 71 72 119 136 142 74 26 90 34 73 34 -8 0 -38 -7 -65 -17z"/>
<path d="M916 1329 c-112 -23 -188 -57 -213 -95 -9 -15 -36 -81 -59 -148 -23
-66 -58 -165 -78 -219 -20 -54 -39 -123 -43 -155 -5 -51 -12 -63 -60 -116 -29
-33 -50 -62 -47 -65 3 -3 28 18 54 47 27 28 51 52 54 52 3 0 11 -11 18 -25 12
-22 13 -14 14 73 0 118 22 181 96 280 79 104 126 148 200 187 96 51 131 50
243 -3 99 -48 119 -62 146 -107 17 -27 19 -28 19 -8 0 37 -45 77 -150 132 -91
47 -107 53 -149 49 -46 -5 -152 -52 -199 -88 -13 -11 -42 -42 -64 -69 -23 -28
-44 -49 -46 -46 -9 9 48 170 72 206 14 20 42 44 63 54 52 26 193 32 251 12 96
-34 237 -139 282 -212 29 -46 24 -99 -8 -103 -13 -2 -32 4 -43 14 -11 10 -19
12 -19 6 0 -26 -53 -11 -101 30 -42 35 -58 42 -104 46 -45 4 -61 0 -99 -22
-42 -24 -106 -98 -106 -120 0 -6 14 5 31 24 l30 35 -6 -40 c-11 -71 52 -195
118 -235 62 -38 104 -36 210 9 108 46 164 52 192 21 25 -28 14 -56 -49 -123
-99 -103 -215 -133 -439 -114 -106 9 -138 5 -105 -14 16 -9 15 -12 -7 -45 -26
-38 -41 -91 -30 -102 4 -4 10 -2 12 3 2 6 16 34 31 64 l28 54 154 2 c226 1
301 31 401 157 45 58 51 100 18 142 -28 36 -74 34 -179 -9 -122 -50 -195 -47
-242 9 -33 40 -78 134 -78 163 0 16 10 49 23 73 20 42 25 45 66 48 61 4 81 -2
132 -43 34 -27 52 -35 79 -33 20 1 41 -2 48 -6 20 -12 114 6 133 25 44 44 11
128 -93 235 -120 125 -215 151 -402 113z m282 -44 c138 -75 259 -269 192 -305
-27 -15 -40 -5 -40 31 0 17 -6 42 -14 57 -25 48 -168 175 -241 215 l-70 38 62
-4 c41 -3 78 -14 111 -32z"/>
<path d="M531 863 c-6 -15 -15 -46 -21 -68 l-10 -40 5 42 c3 23 7 50 10 60 3
10 -1 5 -9 -12 -16 -35 -32 -142 -16 -110 8 16 9 13 7 -17 -5 -61 11 -44 19
20 3 31 13 77 21 100 16 49 12 68 -6 25z"/>
<path d="M1355 519 c-52 -40 -93 -57 -190 -79 -44 -10 -69 -19 -55 -19 77 -2
224 55 271 105 30 32 22 30 -26 -7z"/>
<path d="M1338 468 c-27 -17 -76 -39 -110 -49 -41 -11 -54 -18 -36 -18 41 -1
136 38 172 70 39 36 33 35 -26 -3z"/>
</g>
</svg>
